<?xml version="1.0" standalone="no"?>
<!DOCTYPE svg PUBLIC "-//W3C//DTD SVG 20010904//EN"
 "http://www.w3.org/TR/2001/REC-SVG-20010904/DTD/svg10.dtd">
<svg version="1.0" xmlns="http://www.w3.org/2000/svg"
 width="3000.000000pt" height="450.000000pt" viewBox="0 0 3000.000000 450.000000"
 preserveAspectRatio="xMidYMid meet">

<g transform="translate(0.000000,450.000000) scale(0.100000,-0.100000)"
fill="#000000" stroke="none">
<path d="M12489 3460 c-443 -34 -765 -212 -912 -505 -38 -77 -42 -92 -252
-885 -213 -804 -221 -843 -191 -957 22 -89 51 -140 111 -198 140 -137 421
-208 765 -191 374 17 653 119 840 306 147 147 155 168 392 1057 l202 758 0
120 c1 120 1 121 -37 197 -58 118 -155 194 -310 243 -153 49 -397 71 -608 55z
m236 -410 c65 -33 90 -76 88 -150 -1 -77 -394 -1556 -430 -1623 -52 -94 -144
-149 -281 -168 -58 -8 -100 -8 -152 0 -136 21 -190 70 -190 170 0 66 390 1551
425 1621 41 80 128 146 222 170 21 5 90 8 153 7 100 -2 121 -5 165 -27z"/>
<path d="M21109 3460 c-443 -34 -765 -212 -912 -505 -38 -77 -42 -92 -252
-885 -213 -804 -221 -843 -191 -957 22 -89 51 -140 111 -198 140 -137 421
-208 765 -191 374 17 653 119 840 306 147 147 155 168 392 1057 l202 758 0
120 c1 120 1 121 -37 197 -58 118 -155 194 -310 243 -153 49 -397 71 -608 55z
m236 -410 c65 -33 90 -76 88 -150 -1 -77 -394 -1556 -430 -1623 -52 -94 -144
-149 -281 -168 -58 -8 -100 -8 -152 0 -136 21 -190 70 -190 170 0 66 390 1551
425 1621 41 80 128 146 222 170 21 5 90 8 153 7 100 -2 121 -5 165 -27z"/>
<path d="M26459 3460 c-443 -34 -765 -212 -912 -505 -38 -77 -42 -92 -252
-885 -213 -804 -221 -843 -191 -957 22 -89 51 -140 111 -198 140 -137 421
-208 765 -191 374 17 653 119 840 306 147 147 155 168 392 1057 l202 758 0
120 c1 120 1 121 -37 197 -58 118 -155 194 -310 243 -153 49 -397 71 -608 55z
m236 -410 c65 -33 90 -76 88 -150 -1 -77 -394 -1556 -430 -1623 -52 -94 -144
-149 -281 -168 -58 -8 -100 -8 -152 0 -136 21 -190 70 -190 170 0 66 390 1551
425 1621 41 80 128 146 222 170 21 5 90 8 153 7 100 -2 121 -5 165 -27z"/>
<path d="M2476 3413 c-18 -59 -696 -2633 -696 -2642 0 -8 79 -11 273 -11 l272
0 264 1003 c145 551 268 1007 273 1012 6 6 7 -32 4 -100 -4 -60 -20 -474 -36
-920 -16 -445 -32 -852 -35 -903 l-5 -92 266 2 266 3 334 680 c567 1156 656
1336 660 1332 2 -2 -115 -454 -261 -1005 -146 -551 -265 -1004 -265 -1007 0
-3 134 -4 297 -3 l298 3 352 1330 c194 732 352 1331 353 1333 0 1 -203 1 -451
0 l-450 -3 -451 -950 c-247 -522 -452 -952 -454 -954 -2 -2 -5 -2 -7 0 -3 3
77 1509 97 1817 l5 92 -449 0 c-419 0 -449 -1 -454 -17z"/>
<path d="M5370 3420 c0 -5 79 -350 176 -766 l176 -757 -111 -421 c-61 -232
-129 -487 -150 -569 l-39 -147 315 2 316 3 151 567 151 568 575 755 c316 415
576 759 578 765 3 7 -97 10 -300 10 l-303 -1 -344 -490 c-189 -270 -347 -487
-351 -482 -4 4 -45 225 -91 491 l-83 482 -333 0 c-204 0 -333 -4 -333 -10z"/>
<path d="M9516 3413 c-18 -58 -696 -2633 -696 -2642 0 -8 89 -11 313 -11 l312
0 114 433 c63 237 127 483 144 545 l30 112 236 0 c324 0 483 23 667 95 217 86
388 250 468 449 33 84 122 431 131 512 23 213 -98 384 -323 458 -168 56 -201
58 -819 63 -547 4 -571 4 -577 -14z m892 -373 c146 -16 200 -68 189 -179 -7
-72 -100 -419 -127 -471 -29 -57 -85 -106 -149 -132 -50 -20 -77 -22 -273 -26
l-217 -4 14 49 c7 26 50 188 95 358 45 171 88 334 97 363 l14 52 137 0 c75 0
174 -4 220 -10z"/>
<path d="M14006 3413 c-18 -58 -696 -2633 -696 -2642 0 -8 89 -11 313 -11
l312 0 150 570 150 570 165 0 c239 0 321 -25 361 -108 33 -67 22 -136 -75
-502 -86 -322 -105 -424 -92 -494 l7 -36 321 0 320 0 -6 26 c-25 97 -20 123
85 521 92 352 106 436 90 535 -14 82 -37 131 -83 174 -40 38 -120 80 -171 89
-20 4 -37 10 -37 14 0 4 23 13 52 20 177 46 357 190 435 351 40 81 100 278
122 404 42 232 -62 399 -292 471 -169 54 -226 58 -849 62 -552 4 -576 4 -582
-14z m882 -373 c129 -15 183 -55 197 -146 8 -46 -60 -326 -99 -408 -43 -95
-133 -159 -256 -185 -68 -15 -390 -27 -390 -16 0 9 159 614 186 713 l15 52
132 0 c73 0 169 -4 215 -10z"/>
<path d="M16087 3252 c-26 -98 -47 -184 -47 -190 0 -9 84 -12 325 -12 179 0
325 -1 325 -3 0 -2 -135 -514 -300 -1138 -165 -623 -300 -1137 -300 -1141 0
-5 141 -8 313 -8 l313 0 284 1073 c156 589 292 1105 303 1145 l19 72 329 0
328 0 10 38 c6 20 26 98 46 172 20 74 38 143 41 153 5 16 -46 17 -968 17
l-974 0 -47 -178z"/>
<path d="M18376 3413 c-18 -59 -696 -2633 -696 -2642 0 -8 89 -11 313 -11
l312 0 144 548 c80 301 148 562 153 579 l9 33 407 2 407 3 42 160 c23 88 45
172 48 188 l7 27 -401 0 c-363 0 -401 2 -401 16 0 14 135 535 177 682 l14 52
518 0 517 0 47 183 c26 100 48 185 47 190 0 4 -373 7 -829 7 -781 0 -830 -1
-835 -17z"/>
<path d="M22636 3413 c-18 -59 -696 -2633 -696 -2642 0 -8 226 -11 830 -11
l829 0 10 38 c6 20 26 98 46 172 20 74 38 143 41 153 5 16 -24 17 -510 17
-343 0 -516 3 -516 10 0 9 579 2206 596 2263 5 16 -14 17 -310 17 -291 0 -315
-1 -320 -17z"/>
<path d="M24596 3413 c-18 -59 -696 -2633 -696 -2642 0 -8 89 -11 313 -11
l312 0 349 1323 c192 727 351 1328 354 1335 3 9 -63 12 -311 12 -292 0 -316
-1 -321 -17z"/>
<path d="M6855 708 c-2 -7 -18 -67 -35 -133 -17 -66 -33 -128 -36 -137 -5 -17
40 -18 854 -18 l859 0 36 139 c21 77 37 144 37 150 0 17 -1709 15 -1715 -1z"/>
</g>
</svg>
